<?xml version="1.0" encoding="utf-8"?>
<!-- Generator: Adobe Illustrator 16.0.0, SVG Export Plug-In . SVG Version: 6.00 Build 0)  -->
<svg version="1.2" baseProfile="tiny" id="Layer_1" xmlns="http://www.w3.org/2000/svg" xmlns:xlink="http://www.w3.org/1999/xlink"
	 x="0px" y="0px" width="118.834px" height="21.167px" viewBox="0 0 118.834 21.167" xml:space="preserve">
<path fill="#3B489E" d="M17.93,19.333h-5.691l-5.112-6.859l-0.919,1.156v5.703H1.5V2.452h4.709v7.494l5.993-7.494h5.452
	l-6.686,7.834L17.93,19.333z"/>
<path fill="#3B489E" d="M23.608,19.333h-4.407V1.692h4.407V19.333z"/>
<path fill="#3B489E" d="M31.515,4.788h-4.659V1.692h4.659V4.788z M31.389,19.333h-4.407V6.602h4.407V19.333z"/>
<path fill="#3B489E" d="M51.66,19.333v-6.36c0-0.627-0.013-1.156-0.038-1.587c-0.025-0.431-0.101-0.783-0.227-1.055
	c-0.126-0.272-0.321-0.47-0.585-0.595c-0.265-0.125-0.636-0.187-1.114-0.187c-0.336,0-0.667,0.066-0.995,0.198
	c-0.328,0.132-0.685,0.319-1.07,0.562v9.024h-4.432v-6.36c0-0.62-0.015-1.147-0.044-1.582s-0.107-0.788-0.233-1.06
	s-0.321-0.47-0.585-0.595c-0.264-0.125-0.632-0.187-1.102-0.187c-0.361,0-0.713,0.076-1.058,0.227
	c-0.344,0.151-0.68,0.329-1.007,0.533v9.024h-4.407V6.602h4.407v1.406c0.722-0.551,1.402-0.982,2.04-1.292
	c0.638-0.31,1.355-0.465,2.153-0.465c0.864,0,1.624,0.186,2.279,0.556c0.655,0.371,1.154,0.922,1.498,1.655
	c0.848-0.71,1.647-1.256,2.398-1.638c0.751-0.382,1.513-0.573,2.285-0.573c0.655,0,1.242,0.095,1.763,0.284s0.961,0.472,1.322,0.85
	c0.395,0.408,0.69,0.894,0.888,1.457c0.197,0.563,0.296,1.298,0.296,2.205v8.288H51.66z"/>
<path fill="#3B489E" d="M67.146,17.984c-0.302,0.227-0.572,0.431-0.812,0.612c-0.239,0.181-0.561,0.363-0.964,0.544
	c-0.395,0.174-0.778,0.306-1.151,0.397c-0.374,0.091-0.896,0.136-1.568,0.136c-1.25,0-2.289-0.378-3.115-1.134
	c-0.827-0.756-1.24-1.708-1.24-2.857c0-0.944,0.209-1.708,0.629-2.29s1.024-1.043,1.813-1.383c0.797-0.348,1.75-0.59,2.857-0.726
	c1.108-0.136,2.3-0.242,3.576-0.318v-0.068c0-0.703-0.288-1.188-0.862-1.457c-0.575-0.268-1.438-0.402-2.588-0.402
	c-0.521,0-1.129,0.085-1.825,0.255c-0.697,0.17-1.377,0.387-2.04,0.652h-0.377V6.874c0.436-0.113,1.141-0.247,2.115-0.402
	c0.973-0.155,1.955-0.232,2.945-0.232c2.435,0,4.208,0.365,5.32,1.094c1.111,0.729,1.668,1.842,1.668,3.339v8.662h-4.382V17.984z
	 M67.146,16.012v-2.653c-0.747,0.068-1.352,0.126-1.813,0.176c-0.462,0.049-0.915,0.146-1.36,0.289
	c-0.386,0.121-0.686,0.304-0.9,0.55c-0.214,0.246-0.32,0.572-0.32,0.98c0,0.597,0.178,1.007,0.535,1.23
	c0.356,0.223,0.883,0.334,1.58,0.334c0.386,0,0.78-0.079,1.184-0.238C66.454,16.522,66.819,16.299,67.146,16.012z"/>
<path fill="#B1902F" d="M90.036,14.164c0,0.839-0.177,1.576-0.529,2.211s-0.827,1.16-1.423,1.576
	c-0.705,0.499-1.479,0.854-2.322,1.066c-0.844,0.211-1.916,0.317-3.218,0.317H75.04V2.452h6.623c1.377,0,2.419,0.047,3.129,0.142
	c0.709,0.095,1.374,0.293,1.995,0.595c0.672,0.325,1.173,0.76,1.505,1.304c0.331,0.544,0.497,1.172,0.497,1.882
	c0,0.824-0.229,1.557-0.686,2.199c-0.458,0.643-1.09,1.115-1.896,1.417v0.09c1.158,0.219,2.086,0.667,2.783,1.344
	C89.688,12.102,90.036,13.015,90.036,14.164z M84.005,7.225c0-0.272-0.078-0.552-0.232-0.839c-0.156-0.287-0.397-0.495-0.725-0.624
	c-0.311-0.121-0.678-0.187-1.102-0.198c-0.424-0.012-1.056-0.017-1.895-0.017h-0.327v3.571h0.591c0.807,0,1.371-0.008,1.694-0.023
	c0.322-0.015,0.656-0.094,1.001-0.238c0.377-0.159,0.638-0.378,0.78-0.658S84.005,7.596,84.005,7.225z M85.188,14.084
	c0-0.521-0.118-0.93-0.353-1.225c-0.235-0.295-0.588-0.518-1.058-0.669c-0.285-0.098-0.678-0.153-1.177-0.165
	c-0.5-0.011-1.169-0.017-2.009-0.017h-0.868v4.229h0.251c1.226,0,2.073-0.007,2.544-0.022c0.47-0.015,0.948-0.117,1.435-0.306
	c0.429-0.166,0.741-0.41,0.938-0.731S85.188,14.493,85.188,14.084z"/>
<path fill="#BEA151" d="M113.806,19.583c-1.796,0-3.104-0.333-3.922-0.998s-1.228-1.753-1.228-3.266V9.368h-1.687V6.602h1.687V2.962
	h4.407v3.639h4.243v2.767h-4.243v4.512c0,0.446,0.004,0.835,0.013,1.167c0.008,0.333,0.075,0.631,0.201,0.896
	c0.117,0.265,0.325,0.474,0.623,0.629c0.298,0.155,0.732,0.232,1.304,0.232c0.234,0,0.543-0.045,0.925-0.136
	c0.382-0.091,0.648-0.174,0.8-0.25h0.378v2.8c-0.479,0.113-0.986,0.202-1.523,0.266C115.245,19.551,114.587,19.583,113.806,19.583z"
	/>
<circle fill="#FFD21E" cx="98.757" cy="12.764" r="3.32"/>
<path fill="#B1902F" d="M99.379,17.843c-2.744-0.22-6.369-1.71-6.369-5.079c0-3.368,1.496-2.507,6.57-6.18
	C89.18,14.624,99.851,16.388,99.379,17.843z"/>
<path fill="#C7AD52" d="M104.891,12.963c-0.184,3.15-3.245,4.753-5.781,4.072c-0.353-0.951,8.261-1.557,0.471-8.843
	C102.697,10.475,105.125,8.943,104.891,12.963z"/>
<path fill="#988347" d="M106.616,12.963c0,4.812-2.694,6.301-7.507,6.301s-7.507-1.489-7.507-6.301
	C95.761,19.145,100.737,20.955,106.616,12.963z"/>
</svg>
